# xmcd
#
# Track frame offsets:
#	182
#	18847
#	34170
#	45690
#	61670
#	79290
#	93765
#	112652
#	127387
#	141207
#
# Disc length: 2169 seconds
#
# Revision: 1
# Processed by: cddbd v1.5.2PL0 Copyright (c) Steve Scherf et al.
# Submitted via: audiograbber 1.83.01
#
DISCID=7b08770a
DTITLE=Kemal Monteno - Sarajevo ljubavi moja
DYEAR=2000
DGENRE=Pop
TTITLE0=Pismo prijatelju
TTITLE1=Sarajevo ljubavi moja
TTITLE2=Lidija
TTITLE3=Sviraj gitaro moja
TTITLE4=Tajna zena
TTITLE5=Jedne nocu u Decembru
TTITLE6=Pahuljice moja
TTITLE7=Sviraj mi o njoj
TTITLE8=Duso moja
TTITLE9=Nekako s proljeca
EXTD=
EXTT0=
EXTT1=
EXTT2=
EXTT3=
EXTT4=
EXTT5=
EXTT6=
EXTT7=
EXTT8=
EXTT9=
PLAYORDER=
